HIERARCHY
ROOT Hips
{
    OFFSET 0.000000 0.000000 0.000000
    CHANNELS 6 Xposition Yposition Zposition Zrotation Yrotation Xrotation
    JOINT Chest
    {
        OFFSET 0.000000 1.634758 -0.000000
        CHANNELS 3 Zrotation Yrotation Xrotation
        JOINT Chest2
        {
            OFFSET 0.000000 2.197341 0.000000
            CHANNELS 3 Zrotation Yrotation Xrotation
            JOINT Neck
            {
                OFFSET 0.000000 0.961544 0.000000
                CHANNELS 3 Zrotation Yrotation Xrotation
                JOINT Head
                {
                    OFFSET 0.000000 0.632542 -0.032565
                    CHANNELS 3 Zrotation Yrotation Xrotation
                    End Site
                    {
                        OFFSET -0.000001 0.439502 2.922845
                    }
                }
            }
            JOINT LeftCollar
            {
                OFFSET 0.167536 0.778237 -0.168280
                CHANNELS 3 Zrotation Yrotation Xrotation
                JOINT LeftShoulder
                {
                    OFFSET 0.831514 -0.002900 0.006458
                    CHANNELS 3 Zrotation Yrotation Xrotation
                    JOINT LeftElbow
                    {
                        OFFSET 2.272872 -0.026639 0.059314
                        CHANNELS 3 Zrotation Yrotation Xrotation
                        JOINT LeftWrist
                        {
                            OFFSET 2.081982 -0.024402 0.054333
                            CHANNELS 3 Zrotation Yrotation Xrotation
                            JOINT LeftHandThumb1
                            {
                                OFFSET 0.218903 -0.128645 0.283837
                                CHANNELS 3 Zrotation Yrotation Xrotation
                                JOINT LeftHandThumb2
                                {
                                    OFFSET 0.137157 -0.025101 0.077902
                                    CHANNELS 3 Zrotation Yrotation Xrotation
                                    JOINT LeftHandThumb3
                                    {
                                        OFFSET 0.165861 -0.067014 0.039226
                                        CHANNELS 3 Zrotation Yrotation Xrotation
                                        End Site
                                        {
                                            OFFSET 0.241157 -0.045065 0.107930
                                        }
                                    }
                                }
                            }
                            JOINT LeftHandFore1
                            {
                                OFFSET 0.767340 -0.016076 0.196678
                                CHANNELS 3 Zrotation Yrotation Xrotation
                                JOINT LeftHandFore2
                                {
                                    OFFSET 0.215173 -0.024035 0.010864
                                    CHANNELS 3 Zrotation Yrotation Xrotation
                                    JOINT LeftHandFore3
                                    {
                                        OFFSET 0.127998 -0.018363 0.006493
                                        CHANNELS 3 Zrotation Yrotation Xrotation
                                        End Site
                                        {
                                            OFFSET 0.191872 -0.022849 0.005461
                                        }
                                    }
                                }
                            }
                            JOINT LeftHandMiddle1
                            {
                                OFFSET 0.709887 -0.008320 0.018526
                                CHANNELS 3 Zrotation Yrotation Xrotation
                                JOINT LeftHandMiddle2
                                {
                                    OFFSET 0.243305 -0.028680 0.006624
                                    CHANNELS 3 Zrotation Yrotation Xrotation
                                    JOINT LeftHandMiddle3
                                    {
                                        OFFSET 0.145223 -0.016669 0.003951
                                        CHANNELS 3 Zrotation Yrotation Xrotation
                                        End Site
                                        {
                                            OFFSET 0.233621 -0.031666 0.006995
                                        }
                                    }
                                }
                            }
                            JOINT LeftHandRing1
                            {
                                OFFSET 0.743817 -0.005823 -0.153668
                                CHANNELS 3 Zrotation Yrotation Xrotation
                                JOINT LeftHandRing2
                                {
                                    OFFSET 0.349394 -0.050632 -0.009675
                                    CHANNELS 3 Zrotation Yrotation Xrotation
                                    JOINT LeftHandRing3
                                    {
                                        OFFSET 0.134332 -0.023631 0.001421
                                        CHANNELS 3 Zrotation Yrotation Xrotation
                                        End Site
                                        {
                                            OFFSET 0.116893 -0.027460 0.001278
                                        }
                                    }
                                }
                            }
                            JOINT LeftHandLittle1
                            {
                                OFFSET 0.689408 -0.053302 -0.308304
                                CHANNELS 3 Zrotation Yrotation Xrotation
                                JOINT LeftHandLittle2
                                {
                                    OFFSET 0.193251 -0.018757 -0.018874
                                    CHANNELS 3 Zrotation Yrotation Xrotation
                                    JOINT LeftHandLittle3
                                    {
                                        OFFSET 0.116994 -0.025997 -0.011519
                                        CHANNELS 3 Zrotation Yrotation Xrotation
                                        End Site
                                        {
                                            OFFSET 0.189726 -0.012367 -0.011818
                                        }
                                    }
                                }
                            }
                        }
                    }
                }
            }
            JOINT RightCollar
            {
                OFFSET -0.167536 0.778237 -0.168280
                CHANNELS 3 Zrotation Yrotation Xrotation
                JOINT RightShoulder
                {
                    OFFSET -0.831514 -0.002900 0.006457
                    CHANNELS 3 Zrotation Yrotation Xrotation
                    JOINT RightElbow
                    {
                        OFFSET -2.272872 -0.026639 0.059313
                        CHANNELS 3 Zrotation Yrotation Xrotation
                        JOINT RightWrist
                        {
                            OFFSET -2.081982 -0.024402 0.054331
                            CHANNELS 3 Zrotation Yrotation Xrotation
                            JOINT RightHandThumb1
                            {
                                OFFSET -0.218911 -0.128571 0.283837
                                CHANNELS 3 Zrotation Yrotation Xrotation
                                JOINT RightHandThumb2
                                {
                                    OFFSET -0.137157 -0.025101 0.077902
                                    CHANNELS 3 Zrotation Yrotation Xrotation
                                    JOINT RightHandThumb3
                                    {
                                        OFFSET -0.157011 -0.012581 0.093427
                                        CHANNELS 3 Zrotation Yrotation Xrotation
                                        End Site
                                        {
                                            OFFSET -0.195258 0.028102 0.181442
                                        }
                                    }
                                }
                            }
                            JOINT RightHandFore1
                            {
                                OFFSET -0.767344 -0.015991 0.196679
                                CHANNELS 3 Zrotation Yrotation Xrotation
                                JOINT RightHandFore2
                                {
                                    OFFSET -0.205562 -0.058382 0.036508
                                    CHANNELS 3 Zrotation Yrotation Xrotation
                                    JOINT RightHandFore3
                                    {
                                        OFFSET -0.121501 -0.038640 0.022503
                                        CHANNELS 3 Zrotation Yrotation Xrotation
                                        End Site
                                        {
                                            OFFSET -0.182353 -0.052464 0.036900
                                        }
                                    }
                                }
                            }
                            JOINT RightHandMiddle1
                            {
                                OFFSET -0.709887 -0.008302 0.018525
                                CHANNELS 3 Zrotation Yrotation Xrotation
                                JOINT RightHandMiddle2
                                {
                                    OFFSET -0.241251 -0.038863 0.018690
                                    CHANNELS 3 Zrotation Yrotation Xrotation
                                    JOINT RightHandMiddle3
                                    {
                                        OFFSET -0.123249 -0.073915 0.027035
                                        CHANNELS 3 Zrotation Yrotation Xrotation
                                        End Site
                                        {
                                            OFFSET -0.196491 -0.123335 0.042542
                                        }
                                    }
                                }
                            }
                            JOINT RightHandRing1
                            {
                                OFFSET -0.743819 -0.005785 -0.153669
                                CHANNELS 3 Zrotation Yrotation Xrotation
                                JOINT RightHandRing2
                                {
                                    OFFSET -0.339953 -0.072905 -0.062049
                                    CHANNELS 3 Zrotation Yrotation Xrotation
                                    JOINT RightHandRing3
                                    {
                                        OFFSET -0.129907 -0.039256 -0.013712
                                        CHANNELS 3 Zrotation Yrotation Xrotation
                                        End Site
                                        {
                                            OFFSET -0.112175 -0.040971 -0.012589
                                        }
                                    }
                                }
                            }
                            JOINT RightHandLittle1
                            {
                                OFFSET -0.689403 -0.053298 -0.308303
                                CHANNELS 3 Zrotation Yrotation Xrotation
                                JOINT RightHandLittle2
                                {
                                    OFFSET -0.175132 -0.049492 -0.070247
                                    CHANNELS 3 Zrotation Yrotation Xrotation
                                    JOINT RightHandLittle3
                                    {
                                        OFFSET -0.102075 -0.057909 -0.026886
                                        CHANNELS 3 Zrotation Yrotation Xrotation
                                        End Site
                                        {
                                            OFFSET -0.173680 -0.064493 -0.044322
                                        }
                                    }
                                }
                            }
                        }
                    }
                }
            }
        }
    }
    JOINT LeftHip
    {
        OFFSET 0.685143 0.673822 -0.044491
        CHANNELS 3 Zrotation Yrotation Xrotation
        JOINT LeftKnee
        {
            OFFSET 0.085364 -3.750208 0.017676
            CHANNELS 3 Zrotation Yrotation Xrotation
            JOINT LeftAnkle
            {
                OFFSET 0.094583 -4.155206 0.019585
                CHANNELS 3 Zrotation Yrotation Xrotation
                JOINT LeftToe
                {
                    OFFSET -0.000000 -0.395925 0.621478
                    CHANNELS 3 Zrotation Yrotation Xrotation
                    End Site
                    {
                        OFFSET -0.000000 -0.077878 0.321152
                    }
                }
            }
        }
    }
    JOINT RightHip
    {
        OFFSET -0.685143 0.673822 -0.044492
        CHANNELS 3 Zrotation Yrotation Xrotation
        JOINT RightKnee
        {
            OFFSET -0.085364 -3.750208 0.017677
            CHANNELS 3 Zrotation Yrotation Xrotation
            JOINT RightAnkle
            {
                OFFSET -0.094583 -4.155206 0.019585
                CHANNELS 3 Zrotation Yrotation Xrotation
                JOINT RightToe
                {
                    OFFSET -0.000000 -0.395925 0.621478
                    CHANNELS 3 Zrotation Yrotation Xrotation
                    End Site
                    {
                        OFFSET -0.000000 -0.077878 0.321152
                    }
                }
            }
        }
    }
}
MOTION
Frames: 7
Frame Time: 0.033333
-0.038451 8.373470 -0.282235 180.000000 -0.000011 180.000000 -0.000000 0.000000 -0.706997 -0.000002 -0.000000 -3.645261 0.000003 -0.000003 4.684107 0.000005 -0.000009 11.067140 -14.331098 2.439896 0.008525 -56.962536 7.731463 -1.570873 0.000003 0.000001 0.000000 -7.709131 -0.111757 4.281106 0.000000 -0.000000 -0.000001 -0.000001 -0.000001 0.000003 0.000000 0.000002 -0.000004 -0.000001 -0.000002 -0.000000 0.000000 -0.000000 0.000000 0.000001 -0.000000 0.000000 0.000001 -0.000000 0.000000 0.000000 0.000000 0.000000 0.000002 -0.000000 -0.000000 -0.000001 -0.000000 0.000000 0.000000 -0.000000 0.000001 0.000001 -0.000000 -0.000001 -0.000001 -0.000001 -0.000000 0.000001 0.000000 -0.000000 -0.000001 -0.000000 0.000000 14.274389 -2.074222 0.007232 56.933098 -6.571081 -1.213649 0.000001 0.000001 0.000000 14.951930 -1.713683 3.636150 0.000001 -0.000002 -0.000000 0.000003 0.000001 0.000005 0.000000 0.000002 0.000003 -0.000000 0.000001 0.000001 0.000000 -0.000000 -0.000001 0.000001 -0.000000 -0.000001 -0.000002 0.000001 -0.000001 -0.000000 0.000001 -0.000000 0.000002 -0.000000 -0.000000 -0.000000 -0.000000 0.000000 0.000001 -0.000000 0.000000 -0.000002 0.000001 -0.000001 -0.000001 0.000001 0.000001 -0.000003 -0.000000 -0.000001 0.000001 -0.000000 -0.000000 -0.826041 0.076700 3.371499 0.018429 0.218446 9.642259 1.516274 2.159963 -16.888363 0.000563 0.002341 -0.116310 3.031277 12.833567 -4.579974 -0.073430 -0.431465 19.319237 -6.632416 -10.925758 -0.001913 0.421733 -2.619058 -22.781784
-0.057790 8.373584 -0.282893 179.323807 3.446021 179.990128 -0.615758 0.298386 -0.732584 0.147173 -0.056703 -3.631897 -0.010837 1.089475 4.779520 -0.100015 1.942022 11.246054 -14.182706 1.355487 -0.011639 -57.549980 13.156278 -0.751583 0.037557 -19.031372 -0.231393 5.551213 3.194226 -3.097448 0.000004 -0.000003 -0.000001 -0.290591 0.811331 -0.033004 -0.080854 0.826157 0.173164 -2.500601 0.127538 0.309271 -2.508400 -0.082405 0.116338 -2.465082 -0.062509 0.137750 -2.504724 0.041370 0.230375 -2.511069 -0.069641 0.087234 -2.467943 -0.059504 0.078143 -2.516680 -0.035266 0.028904 -2.513227 -0.035134 -0.017385 -2.468526 -0.047226 0.075597 -2.531849 0.023394 -0.016930 -2.500304 0.135914 -0.018613 -2.467086 0.033242 -0.058018 14.221850 -1.280630 0.020882 56.777966 -9.363254 0.312082 -0.011448 10.817088 -0.128226 4.093170 -7.058910 -4.065592 0.000003 -0.000002 0.000005 0.582823 -0.847188 1.221532 0.601816 -0.163025 0.576406 2.212011 0.039630 0.043760 2.453788 0.446740 0.320490 2.412568 0.460037 0.276056 2.436375 0.046120 0.097139 1.939448 -0.103364 -0.025119 2.413678 -0.049615 0.522491 2.392615 0.090837 0.171674 2.377739 -0.490740 -0.406614 2.442096 -0.293884 -0.232725 2.160020 0.143876 0.266794 2.092859 -0.784055 -0.930350 2.348493 -0.589463 -0.491404 -2.100425 0.151065 5.134132 0.009176 0.154406 6.799322 1.439613 5.616311 -15.782056 0.000804 0.003360 -0.166976 1.905579 12.972637 -5.395355 -0.080875 -0.452140 20.284790 -6.924153 -7.643695 -0.524321 0.420108 -2.610398 -22.776838
-0.103769 8.374766 -0.284789 177.714844 5.953860 179.962067 -2.215271 1.047631 -0.868431 0.360891 -0.187714 -3.661494 -0.114993 1.686295 4.968122 -0.144402 2.802703 11.602907 -13.611622 -0.914029 -0.053415 -56.731674 12.169609 0.827129 0.136619 -34.067242 -0.453278 22.559858 8.127241 -12.774285 0.000003 -0.000000 -0.000003 -1.054734 3.016479 -0.133182 -0.272006 3.064545 0.660434 -9.286842 0.487765 1.148161 -9.318481 -0.283353 0.433767 -9.157096 -0.208939 0.515011 -9.303038 0.167970 0.854863 -9.327509 -0.244901 0.326972 -9.167187 -0.209672 0.293689 -9.348078 -0.116482 0.106486 -9.334432 -0.145838 -0.063561 -9.169041 -0.170116 0.283690 -9.403688 0.102796 -0.064589 -9.292614 0.454243 -0.068955 -9.164639 0.074184 -0.215266 14.096440 -0.195027 0.052622 56.473858 -11.254292 3.205331 -0.048051 21.352049 -0.262216 -4.521543 -13.983217 -12.330781 -0.000001 0.000003 -0.000003 2.134376 -3.150819 4.494352 2.244791 -0.627008 2.112388 8.216434 0.139019 0.160918 9.124557 1.591032 1.304430 8.972391 1.642825 1.135719 9.049875 0.160758 0.359531 7.198287 -0.405546 -0.061350 8.958600 -0.293214 1.939305 8.887993 0.328987 0.636179 8.855554 -1.740211 -1.560482 9.076722 -1.049369 -0.917255 8.025270 0.528011 0.990645 7.838786 -2.786262 -3.553887 8.743126 -2.122024 -1.940022 -4.258820 0.331618 8.708088 0.000000 -0.000000 0.000000 1.932728 8.058241 -12.609337 0.000000 0.000002 0.000000 -0.172771 13.333054 -6.638896 -0.094237 -0.486770 21.915590 -6.896631 -5.546534 -1.371925 0.415384 -2.585122 -22.762583
-0.158358 8.377835 -0.287806 175.802582 7.290678 179.918106 -4.157087 2.100525 -1.075300 0.573185 -0.365209 -3.706681 -0.307904 1.775767 5.100414 -0.134553 2.611825 11.860501 -12.628589 -1.887993 -0.095797 -56.205246 15.473429 0.806061 0.383560 -50.672249 -0.817429 31.644732 13.658264 -18.416395 -0.000007 0.000002 0.000002 -2.117543 6.272688 -0.305061 -0.476255 6.350558 1.429699 -19.284668 1.055551 2.378687 -19.358250 -0.515637 0.898057 -19.021641 -0.360409 1.071334 -19.320896 0.392092 1.768715 -19.374550 -0.465303 0.683373 -19.041164 -0.398364 0.615605 -19.416311 -0.198069 0.214156 -19.385580 -0.349226 -0.124347 -19.044090 -0.336341 0.596482 -19.529688 0.260888 -0.143236 -19.316072 0.787943 -0.127164 -19.036489 0.002565 -0.431192 13.884892 0.856260 0.094717 55.773075 -12.550886 6.656826 -0.105356 30.460329 -0.394297 -12.304250 -21.685524 -20.019510 0.000004 0.000005 0.000000 4.355662 -6.553099 9.200577 4.690371 -1.366865 4.297423 17.066082 0.262062 0.327007 18.988934 3.062941 3.037168 18.676336 3.179324 2.676819 18.797396 0.300122 0.739144 14.931600 -0.915848 -0.035129 18.580341 -0.939296 3.992565 18.463102 0.654837 1.313814 18.467009 -3.347266 -3.372436 18.872383 -2.035507 -2.053960 16.674948 1.073613 2.055087 16.487284 -5.367273 -7.659519 18.231615 -4.168726 -4.362560 -6.560032 0.487759 8.511069 -0.000000 -0.000000 0.000000 2.148460 9.260326 -12.520643 -0.000000 -0.000001 -0.000004 -2.475291 13.873873 -7.848289 -0.108158 -0.520036 23.500038 -6.603733 -4.814692 -2.175780 0.407778 -2.544291 -22.739540
-0.203574 8.381739 -0.291829 174.216446 8.365115 179.860474 -5.772770 3.316014 -1.286653 0.742759 -0.565051 -3.707898 -0.565387 1.740171 5.221788 -0.110545 2.146306 12.103409 -11.426467 -2.709846 -0.132971 -55.591190 17.373489 0.522428 0.913121 -65.060135 -1.438965 43.344475 20.271914 -19.844643 0.000003 0.000008 0.000005 -3.311160 10.233975 -0.543501 -0.594038 10.315585 2.459028 -31.420427 1.801517 3.853847 -31.554659 -0.697793 1.436410 -31.003357 -0.443521 1.728627 -31.484262 0.721777 2.858101 -31.576992 -0.672671 1.110274 -31.033039 -0.575603 1.003047 -31.643072 -0.238822 0.324124 -31.588583 -0.657707 -0.175886 -31.036169 -0.513089 0.982026 -31.823921 0.515837 -0.262480 -31.504978 0.983686 -0.134713 -31.023659 -0.288374 -0.632027 13.574369 1.707772 0.139756 54.673573 -14.228879 9.988774 -0.193628 39.331749 -0.549122 -20.330036 -29.914747 -26.570908 0.000003 0.000017 0.000002 6.978452 -10.688793 14.729124 7.697199 -2.351780 6.818922 27.813517 0.375600 0.511167 31.025349 4.436080 5.532959 30.524559 4.646282 4.930168 30.635435 0.424409 1.179566 24.289907 -1.655667 0.109387 30.214878 -2.166228 6.358355 30.094326 1.012551 2.116929 30.238283 -4.896317 -5.692377 30.798317 -2.998080 -3.603570 27.187361 1.704706 3.337950 27.274986 -7.839683 -12.955877 29.872807 -6.242831 -7.711795 -8.438273 0.699542 8.298999 0.000000 -0.000000 -0.000001 2.323586 10.123783 -12.373959 0.000000 0.000000 0.000003 -4.375880 14.561021 -8.802930 -0.118823 -0.543906 24.648718 -6.260528 -4.509566 -2.756383 0.397540 -2.489006 -22.708492
-0.226253 8.384133 -0.296743 173.421997 9.269103 179.791473 -6.577945 4.551935 -1.423526 0.827773 -0.763759 -3.587513 -0.872132 1.683220 5.315207 -0.085238 1.655283 12.299345 -10.140184 -3.618662 -0.159186 -54.382065 16.383291 0.345049 2.044906 -75.762070 -2.635768 55.603428 24.880241 -17.720720 -0.000002 0.000001 0.000000 -4.493971 14.549538 -0.826562 -0.547459 14.591003 3.719867 -44.622780 2.676994 5.421418 -44.832253 -0.784544 1.961068 -44.045097 -0.419499 2.394476 -44.719761 1.145410 4.004179 -44.858494 -0.827737 1.551752 -44.085045 -0.709508 1.405808 -44.949493 -0.217467 0.403556 -44.866180 -1.062611 -0.189143 -44.087494 -0.673400 1.402278 -45.200920 0.865560 -0.437038 -44.784622 0.959514 -0.009507 -44.065582 -0.836149 -0.722153 13.159978 2.170614 0.180569 53.439060 -17.332048 12.543264 -0.345361 48.879673 -0.767245 -25.861309 -38.314754 -32.331146 -0.000005 0.000006 0.000002 9.781376 -15.184675 20.514429 11.013853 -3.525311 9.389843 39.510708 0.460990 0.678960 44.182487 5.325349 8.623718 43.488316 5.659452 7.751737 43.519764 0.512136 1.619756 34.425632 -2.631041 0.381657 42.807827 -4.007253 8.672908 42.756378 1.364046 2.953214 43.153481 -6.056736 -8.266850 43.811996 -3.716001 -5.438590 38.637821 2.360642 4.712134 39.326431 -9.622915 -18.962198 42.689262 -7.892926 -11.761830 -9.407083 0.964865 8.199779 0.000000 -0.000000 -0.000001 2.408540 10.755345 -12.202514 -0.000000 -0.000001 -0.000002 -5.337002 15.359402 -9.296124 -0.123860 -0.554752 25.174200 -5.949894 -4.508090 -3.024440 0.384918 -2.420379 -22.669981
-0.243225 8.386102 -0.302434 172.828323 10.073282 179.713379 -7.173429 5.695877 -1.536724 0.893171 -0.948133 -3.406079 -1.212589 1.700704 5.374061 -0.068864 1.337459 12.436332 -8.904188 -4.404164 -0.174245 -52.748974 13.879051 0.151470 5.203290 -83.461929 -5.840029 65.056366 27.395147 -16.578264 -0.000009 0.000001 -0.000003 -5.558477 18.865461 -1.118953 -0.300247 18.814672 5.155524 -57.822914 3.608092 6.935619 -58.113701 -0.781949 2.390636 -57.088741 -0.298930 2.982319 -57.954872 1.625768 5.095070 -58.141563 -0.919265 1.952969 -57.138538 -0.795190 1.774579 -58.256294 -0.138749 0.426783 -58.142307 -1.527812 -0.142807 -57.139790 -0.800982 1.815890 -58.576046 1.281525 -0.674358 -58.074154 0.730657 0.310959 -57.104496 -1.584216 -0.625509 12.681362 2.594951 0.213842 52.509995 -20.193737 14.054788 -0.588923 57.974873 -1.070293 -29.349098 -46.675117 -36.967896 -0.000008 0.000007 -0.000002 12.574791 -19.663090 26.060156 14.376102 -4.796584 11.770651 51.209320 0.519276 0.800456 57.362061 5.513350 11.953773 56.490021 5.994626 10.815103 56.405514 0.566102 2.005071 44.502472 -3.801581 0.742194 55.339050 -6.302202 10.615659 55.422165 1.694918 3.735868 56.143719 -6.667969 -10.772432 56.851715 -4.064215 -7.349538 50.097725 3.002120 6.051915 51.610012 -10.408461 -25.014650 55.627888 -8.828839 -16.090057 -10.132740 1.277092 8.133238 0.000000 -0.000001 0.000000 2.471941 11.236691 -12.002931 -0.000000 -0.000002 -0.000002 -6.050393 16.248728 -9.655452 -0.127409 -0.562240 25.538212 -5.596663 -4.715657 -3.216705 0.370198 -2.339579 -22.625105
